<?xml version="1.0" standalone="no"?>
<!DOCTYPE svg PUBLIC "-//W3C//DTD SVG 20010904//EN"
 "http://www.w3.org/TR/2001/REC-SVG-20010904/DTD/svg10.dtd">
<svg version="1.0" xmlns="http://www.w3.org/2000/svg"
 width="512.000000pt" height="512.000000pt" viewBox="0 0 512.000000 512.000000"
 preserveAspectRatio="xMidYMid meet">

<g transform="translate(0.000000,512.000000) scale(0.100000,-0.100000)"
fill="#000000" stroke="none">
<path d="M1204 5102 c-11 -11 -69 -152 -133 -325 -106 -285 -116 -307 -138
-307 -60 0 -131 -48 -164 -112 -17 -34 -19 -62 -19 -322 l0 -285 26 -20 c23
-18 41 -21 125 -21 55 0 99 -1 100 -2 5 -26 35 -485 32 -490 -2 -5 -15 -8 -29
-8 -33 0 -64 -34 -64 -69 0 -96 132 -1887 140 -1902 6 -10 19 -23 30 -29 12
-7 460 -10 1344 -10 l1326 0 0 -37 c0 -106 -53 -755 -66 -800 -8 -28 -29 -71
-47 -95 -38 -50 -120 -103 -174 -112 -65 -10 -1844 -7 -1883 4 -94 26 -178
110 -205 204 -8 28 -23 170 -33 315 -19 265 -20 265 -46 288 -34 29 -58 29
-93 -1 -24 -21 -27 -30 -25 -77 4 -126 33 -488 42 -532 23 -113 109 -233 211
-294 108 -65 77 -63 1099 -63 1010 0 985 -1 1093 57 95 52 192 184 216 294 5
24 21 215 36 424 14 209 28 390 31 402 3 15 12 23 25 23 28 0 75 26 83 45 3 9
24 277 47 596 37 535 39 582 25 604 -29 44 -104 45 -127 3 -7 -14 -27 -234
-49 -551 -21 -290 -40 -531 -44 -535 -4 -4 -608 -8 -1341 -10 l-1334 -3 -5 23
c-5 23 -116 1624 -116 1666 l0 22 1461 0 1460 0 -8 -112 c-14 -190 -12 -217
17 -240 29 -23 74 -18 104 12 16 16 21 45 32 187 18 238 18 259 -6 283 -11 11
-31 20 -44 20 -14 0 -27 3 -29 8 -3 5 27 464 32 490 1 1 45 2 100 2 84 0 102
3 125 21 l26 20 0 285 c0 260 -2 288 -19 322 -33 64 -104 112 -164 112 -22 0
-31 18 -108 228 -71 188 -89 229 -109 238 -14 7 -104 17 -200 23 -1916 123
-1874 120 -1896 106 -50 -33 -47 -107 6 -131 14 -7 413 -36 930 -69 498 -31
906 -58 907 -58 1 -1 28 -74 61 -162 l60 -160 -1351 -3 c-743 -1 -1352 0
-1354 2 -3 2 35 110 83 240 l87 236 146 -6 146 -6 24 25 c19 21 22 32 17 62
-11 54 -32 62 -210 74 -204 14 -199 14 -222 -7z m2840 -798 c3 -9 6 -112 6
-230 l0 -214 -1575 0 -1575 0 0 212 c0 183 2 214 17 230 15 17 77 18 1568 18
1407 0 1553 -1 1559 -16z m-79 -626 c-3 -18 -9 -105 -15 -193 -6 -88 -13 -184
-16 -212 l-6 -53 -1368 0 -1369 0 -5 53 c-3 28 -10 122 -16 207 -6 85 -13 172
-15 193 l-5 37 1409 0 1410 0 -4 -32z"/>
<path d="M2471 2779 c-176 -34 -338 -199 -371 -378 -13 -71 -13 -312 1 -387
48 -264 316 -436 574 -369 175 46 312 193 344 369 16 89 14 329 -4 405 -58
246 -302 408 -544 360z m192 -299 c30 -62 32 -71 35 -205 l3 -140 -26 44 c-14
24 -39 60 -55 81 -56 70 -73 124 -68 209 3 42 11 89 18 104 l14 28 23 -28 c13
-15 38 -57 56 -93z m-264 73 c-25 -108 0 -250 60 -337 79 -116 89 -133 101
-169 27 -83 -8 -246 -53 -255 -37 -7 -146 57 -187 110 -62 77 -72 129 -68 331
3 163 4 175 30 222 21 42 106 135 122 135 2 0 0 -17 -5 -37z"/>
</g>
</svg>
