<?xml version="1.0" standalone="no"?>
<!DOCTYPE svg PUBLIC "-//W3C//DTD SVG 20010904//EN"
 "http://www.w3.org/TR/2001/REC-SVG-20010904/DTD/svg10.dtd">
<svg version="1.0" xmlns="http://www.w3.org/2000/svg"
 width="512.000000pt" height="512.000000pt" viewBox="0 0 512.000000 512.000000"
 preserveAspectRatio="xMidYMid meet">

<g transform="translate(0.000000,512.000000) scale(0.100000,-0.100000)"
fill="#000000" stroke="none">
<path d="M682 4337 c-43 -14 -118 -80 -141 -126 -63 -123 -12 -277 113 -344
l41 -22 1480 0 1480 0 40 22 c92 49 139 127 140 228 0 102 -48 183 -138 232
-30 17 -117 18 -1507 20 -1015 1 -1485 -2 -1508 -10z"/>
<path d="M686 3314 c-106 -33 -187 -161 -172 -272 8 -57 52 -138 91 -168 75
-57 23 -54 1062 -54 1077 0 997 -5 1075 76 50 53 71 106 71 180 -1 110 -74
208 -177 239 -75 22 -1877 21 -1950 -1z"/>
<path d="M3525 3321 c-78 -19 -161 -96 -183 -169 -9 -29 -12 -239 -12 -772 l0
-733 -178 175 c-98 96 -196 184 -218 196 -61 31 -123 37 -188 18 -140 -41
-216 -187 -171 -327 16 -50 45 -82 429 -467 226 -228 430 -425 453 -439 58
-34 143 -41 214 -18 50 16 82 45 466 427 270 269 420 426 436 457 57 105 41
217 -43 301 -81 82 -191 100 -293 49 -24 -12 -117 -95 -219 -197 l-178 -176
-2 750 c-3 748 -3 749 -25 790 -56 104 -178 161 -288 135z"/>
<path d="M652 2274 c-155 -77 -187 -280 -63 -404 81 -81 72 -80 691 -80 619 0
610 -1 691 80 116 116 94 309 -45 395 l-49 30 -586 3 -586 2 -53 -26z"/>
</g>
</svg>
